<?xml version="1.0" encoding="UTF-8" standalone="no"?>
<!-- Created with Inkscape (http://www.inkscape.org/) -->

<svg
   width="64"
   height="64"
   viewBox="0 0 16.933333 16.933333"
   version="1.1"
   id="svg5"
   inkscape:version="1.2.2 (b0a8486541, 2022-12-01)"
   sodipodi:docname="favicon.svg"
   xmlns:inkscape="http://www.inkscape.org/namespaces/inkscape"
   xmlns:sodipodi="http://sodipodi.sourceforge.net/DTD/sodipodi-0.dtd"
   xmlns="http://www.w3.org/2000/svg"
   xmlns:svg="http://www.w3.org/2000/svg">
  <sodipodi:namedview
     id="namedview7"
     pagecolor="#ffffff"
     bordercolor="#000000"
     borderopacity="0.25"
     inkscape:showpageshadow="2"
     inkscape:pageopacity="0.0"
     inkscape:pagecheckerboard="0"
     inkscape:deskcolor="#d1d1d1"
     inkscape:document-units="mm"
     showgrid="false"
     inkscape:zoom="12.645974"
     inkscape:cx="38.233512"
     inkscape:cy="33.607534"
     inkscape:window-width="1920"
     inkscape:window-height="1011"
     inkscape:window-x="0"
     inkscape:window-y="32"
     inkscape:window-maximized="1"
     inkscape:current-layer="layer1" />
  <defs
     id="defs2">
    <filter
       inkscape:collect="always"
       style="color-interpolation-filters:sRGB"
       id="filter2732"
       x="-0.13807973"
       y="-0.088681409"
       width="1.2761595"
       height="1.1773628">
      <feGaussianBlur
         inkscape:collect="always"
         stdDeviation="0.60889306"
         id="feGaussianBlur2734" />
    </filter>
  </defs>
  <g
     inkscape:label="Ebene 1"
     inkscape:groupmode="layer"
     id="layer1">
    <path
       id="rect1085"
       style="fill:#333333;fill-opacity:1;stroke-width:0.259964"
       d="M 10.583333 0 L 0.28422038 16.478581 C 0.513121 16.7565 0.86026007 16.933333 1.2500529 16.933333 L 15.68328 16.933333 C 16.37578 16.933333 16.933333 16.37578 16.933333 15.68328 L 16.933333 1.2500529 C 16.933333 0.55755359 16.37578 0 15.68328 0 L 10.583333 0 z M 0.99735514 0.025321452 C 0.95659591 0.033619783 0.91665462 0.043672497 0.87746582 0.055810547 C 0.91665458 0.043672509 0.95659595 0.033619775 0.99735514 0.025321452 z M 0.76274414 0.098185221 C 0.72533207 0.11395669 0.68861915 0.13117983 0.6531901 0.15037842 C 0.68861912 0.13117985 0.72533211 0.11395667 0.76274414 0.098185221 z M 0.6531901 0.15037842 C 0.61776106 0.16957701 0.58359372 0.19048749 0.550354 0.2129069 C 0.58359369 0.19048751 0.6177611 0.16957699 0.6531901 0.15037842 z M 0.550354 0.2129069 C 0.51711429 0.23532631 0.48507993 0.25930321 0.45423584 0.28473714 C 0.4850799 0.25930324 0.51711433 0.23532629 0.550354 0.2129069 z M 0.45423584 0.28473714 C 0.42339175 0.31017108 0.39359454 0.33711022 0.36535238 0.36535238 C 0.39359451 0.33711024 0.42339178 0.31017106 0.45423584 0.28473714 z M 0.36535238 0.36535238 C 0.33711022 0.39359454 0.31017108 0.42339175 0.28473714 0.45423584 C 0.31017106 0.42339178 0.33711024 0.39359451 0.36535238 0.36535238 z M 0.28473714 0.45423584 C 0.25930321 0.48507993 0.23532631 0.51711429 0.2129069 0.550354 C 0.23532629 0.51711433 0.25930324 0.4850799 0.28473714 0.45423584 z M 0.2129069 0.550354 C 0.19048749 0.58359372 0.16957701 0.61776106 0.15037842 0.6531901 C 0.16957699 0.6177611 0.19048751 0.58359369 0.2129069 0.550354 z M 0.15037842 0.6531901 C 0.13117983 0.68861915 0.11395669 0.72533207 0.098185221 0.76274414 C 0.11395667 0.72533211 0.13117985 0.68861912 0.15037842 0.6531901 z M 0.055810547 0.87746582 C 0.043672497 0.91665462 0.033619783 0.95659591 0.025321452 0.99735514 C 0.033619775 0.95659595 0.043672509 0.91665458 0.055810547 0.87746582 z M 0 15.68328 C -8.5584244e-18 15.721111 0.0019090082 15.758462 0.0051676432 15.795418 C 0.0019094703 15.758459 -8.5602117e-18 15.721119 0 15.68328 z M 0.0051676432 15.795418 C 0.0082458016 15.830327 0.0127372 15.864762 0.018603516 15.898771 C 0.01275108 15.864813 0.0082405632 15.830276 0.0051676432 15.795418 z M 0.020670573 15.910657 C 0.02643238 15.942248 0.033266733 15.973491 0.041341146 16.004191 C 0.033236035 15.973395 0.026447859 15.942351 0.020670573 15.910657 z M 0.046508789 16.021761 C 0.055207111 16.052955 0.064451242 16.0836 0.075447591 16.113745 C 0.064533442 16.083796 0.055154168 16.052747 0.046508789 16.021761 z M 0.075447591 16.113745 C 0.086383405 16.143725 0.099028259 16.173269 0.11213786 16.202112 C 0.098953459 16.173115 0.086433157 16.143891 0.075447591 16.113745 z M 0.11833903 16.216064 C 0.13177081 16.244682 0.14626103 16.27241 0.16174723 16.29978 C 0.14631338 16.272502 0.1317309 16.244581 0.11833903 16.216064 z M 0.16898193 16.312183 C 0.18509533 16.339908 0.20200821 16.367008 0.2201416 16.393315 C 0.20201987 16.367022 0.18508432 16.33989 0.16898193 16.312183 z M 0.22272542 16.397449 C 0.2414988 16.424458 0.26135659 16.45061 0.28215332 16.475997 C 0.26133594 16.450585 0.24151378 16.424482 0.22272542 16.397449 z " />
    <path
       id="path2730"
       style="fill:#000000;stroke:#000000;stroke-width:0;stroke-linejoin:round;fill-opacity:1;filter:url(#filter2732);opacity:0.333"
       d="M 1.2500529 0 C 1.1634906 -3.9166123e-17 1.078875 0.0087233247 0.99735514 0.025321452 C 0.95659591 0.033619783 0.91665462 0.043672497 0.87746582 0.055810547 C 0.83827702 0.067948596 0.80015621 0.082413753 0.76274414 0.098185221 C 0.72533207 0.11395669 0.68861915 0.13117983 0.6531901 0.15037842 C 0.61776106 0.16957701 0.58359372 0.19048749 0.550354 0.2129069 C 0.51711429 0.23532631 0.48507993 0.25930321 0.45423584 0.28473714 C 0.42339175 0.31017108 0.39359454 0.33711022 0.36535238 0.36535238 C 0.33711022 0.39359454 0.31017108 0.42339175 0.28473714 0.45423584 C 0.25930321 0.48507993 0.23532631 0.51711429 0.2129069 0.550354 C 0.19048749 0.58359372 0.16957701 0.61776106 0.15037842 0.6531901 C 0.13117983 0.68861915 0.11395669 0.72533207 0.098185221 0.76274414 C 0.082413753 0.80015621 0.067948596 0.83827702 0.055810547 0.87746582 C 0.043672497 0.91665462 0.033619783 0.95659591 0.025321452 0.99735514 C 0.0087233247 1.078875 -1.9583081e-17 1.1634906 0 1.2500529 L 0 9.5947632 L 0 15.68328 C -6.8481762e-17 15.985988 0.10645891 16.262753 0.28422038 16.478581 L 10.583333 0 L 1.2500529 0 z " />
    <path
       id="rect1195"
       style="fill:#aada0b;stroke:#000000;stroke-width:0;stroke-linejoin:round;fill-opacity:1"
       d="M 1.2500529 0 C 1.1634906 -3.9166123e-17 1.078875 0.0087233247 0.99735514 0.025321452 C 0.95659591 0.033619783 0.91665462 0.043672497 0.87746582 0.055810547 C 0.83827702 0.067948596 0.80015621 0.082413753 0.76274414 0.098185221 C 0.72533207 0.11395669 0.68861915 0.13117983 0.6531901 0.15037842 C 0.61776106 0.16957701 0.58359372 0.19048749 0.550354 0.2129069 C 0.51711429 0.23532631 0.48507993 0.25930321 0.45423584 0.28473714 C 0.42339175 0.31017108 0.39359454 0.33711022 0.36535238 0.36535238 C 0.33711022 0.39359454 0.31017108 0.42339175 0.28473714 0.45423584 C 0.25930321 0.48507993 0.23532631 0.51711429 0.2129069 0.550354 C 0.19048749 0.58359372 0.16957701 0.61776106 0.15037842 0.6531901 C 0.13117983 0.68861915 0.11395669 0.72533207 0.098185221 0.76274414 C 0.082413753 0.80015621 0.067948596 0.83827702 0.055810547 0.87746582 C 0.043672497 0.91665462 0.033619783 0.95659591 0.025321452 0.99735514 C 0.0087233247 1.078875 -1.9583081e-17 1.1634906 0 1.2500529 L 0 9.5947632 L 0 15.68328 C -6.8481762e-17 15.985988 0.10645891 16.262753 0.28422038 16.478581 L 10.583333 0 L 1.2500529 0 z " />
  </g>
</svg>
