<?xml version="1.0" encoding="UTF-8" standalone="no"?>
<!-- Created with Inkscape (http://www.inkscape.org/) -->

<svg
   width="64"
   height="64"
   viewBox="0 0 16.933333 16.933333"
   version="1.1"
   id="svg2748"
   inkscape:version="1.2.2 (b0a8486541, 2022-12-01)"
   sodipodi:docname="safari.svg"
   xmlns:inkscape="http://www.inkscape.org/namespaces/inkscape"
   xmlns:sodipodi="http://sodipodi.sourceforge.net/DTD/sodipodi-0.dtd"
   xmlns="http://www.w3.org/2000/svg"
   xmlns:svg="http://www.w3.org/2000/svg">
  <sodipodi:namedview
     id="namedview2750"
     pagecolor="#ffffff"
     bordercolor="#000000"
     borderopacity="0.25"
     inkscape:showpageshadow="2"
     inkscape:pageopacity="0.0"
     inkscape:pagecheckerboard="0"
     inkscape:deskcolor="#d1d1d1"
     inkscape:document-units="px"
     showgrid="false"
     inkscape:zoom="5.8603097"
     inkscape:cx="50.509276"
     inkscape:cy="35.663644"
     inkscape:window-width="1920"
     inkscape:window-height="1011"
     inkscape:window-x="0"
     inkscape:window-y="32"
     inkscape:window-maximized="1"
     inkscape:current-layer="layer1" />
  <defs
     id="defs2745" />
  <g
     inkscape:label="Ebene 1"
     inkscape:groupmode="layer"
     id="layer1">
    <path
       id="path3232"
       style="opacity:1;fill:#000000;stroke:#000000;stroke-width:0;stroke-linejoin:round"
       d="M 0.52916666 0.52916666 L 0.52916666 16.404166 L 10.451041 0.52916666 L 0.52916666 0.52916666 z " />
    <path
       id="rect3653"
       style="opacity:1;fill:#000000;fill-opacity:1;stroke:none;stroke-width:0;stroke-linejoin:miter;stroke-dasharray:none;paint-order:markers fill stroke"
       d="M 0 0 L 0 0.52916666 L 0 16.404166 L 0 16.933333 L 0.52916666 16.933333 L 16.933333 16.933333 L 16.933333 16.404166 L 16.933333 0 L 0.52916666 0 L 0 0 z M 0.52916666 0.52916666 L 16.404166 0.52916666 L 16.404166 16.404166 L 0.52916666 16.404166 L 0.52916666 0.52916666 z " />
    <path
       id="path3667"
       style="opacity:1;fill:none;fill-opacity:1;stroke:none;stroke-width:0;stroke-linejoin:miter;stroke-dasharray:none;paint-order:markers fill stroke"
       d="M 0.52916666 0.52916666 L 0.52916666 0.52916666 L 0.52916666 0.52916666 L 10.451041 0.52916666 " />
    <path
       id="path3678"
       style="opacity:1;fill:none;fill-opacity:1;stroke:none;stroke-width:0;stroke-linejoin:miter;stroke-dasharray:none;paint-order:markers fill stroke"
       d="M 0.52916666 16.404166 L 0.52916666 16.404166 L 0.52916666 0.52916666 " />
    <path
       id="path3676"
       style="opacity:1;fill:none;fill-opacity:1;stroke:none;stroke-width:0;stroke-linejoin:miter;stroke-dasharray:none;paint-order:markers fill stroke"
       d="M 10.451041 0.52916666 L 16.404166 0.52916666 L 16.404166 16.404166 L 0.52916666 16.404166 " />
    <path
       id="path3674"
       style="opacity:1;fill:none;fill-opacity:1;stroke:none;stroke-width:0;stroke-linejoin:miter;stroke-dasharray:none;paint-order:markers fill stroke"
       d="M 0.52916666 0 L 0 0 L 0 0.52916666 L 0 16.404166 L 0 16.933333 L 0.52916666 16.933333 L 16.933333 16.933333 L 16.933333 16.404166 L 16.933333 0 L 10.781771 0 " />
    <path
       id="path3672"
       style="opacity:1;fill:none;fill-opacity:1;stroke:none;stroke-width:0;stroke-linejoin:miter;stroke-dasharray:none;paint-order:markers fill stroke"
       d="M 10.781771 0 L 0.52916666 0 L 0.52916666 0 " />
  </g>
</svg>
