<?xml version="1.0" standalone="no"?>
<!DOCTYPE svg PUBLIC "-//W3C//DTD SVG 20010904//EN"
 "http://www.w3.org/TR/2001/REC-SVG-20010904/DTD/svg10.dtd">
<svg version="1.0" xmlns="http://www.w3.org/2000/svg"
 width="700.000000pt" height="700.000000pt" viewBox="0 0 700.000000 700.000000"
 preserveAspectRatio="xMidYMid meet">
<metadata>
Created by potrace 1.14, written by Peter Selinger 2001-2017
</metadata>
<g transform="translate(0.000000,700.000000) scale(0.100000,-0.100000)"
fill="#000000" stroke="none">
<path d="M0 3500 l0 -3500 3500 0 3500 0 0 3500 0 3500 -3500 0 -3500 0 0
-3500z m6777 3277 c4 -5 5 -6549 0 -6553 -4 -4 -6549 -6 -6553 -2 -1 2 47 82
108 178 60 96 196 312 300 480 266 426 287 460 313 500 12 19 53 85 90 145 38
61 94 151 125 200 32 50 92 146 135 215 116 186 301 482 486 777 90 144 196
314 234 376 39 63 88 143 111 178 22 35 121 192 218 349 98 157 188 301 201
320 26 39 195 311 293 470 35 58 79 128 97 155 17 28 58 93 90 145 33 52 65
104 73 115 13 20 144 228 375 600 313 502 400 642 418 670 11 17 111 176 223
355 l203 325 54 5 c60 6 2400 2 2406 -3z"/>
</g>
</svg>
